<svg xmlns="http://www.w3.org/2000/svg" width="396.781" height="73.219" viewBox="0 0 396.781 73.219">
  <defs>
    <style>
      .cls-1 {
        fill-rule: evenodd;
      }
    </style>
  </defs>
  <path id="Toon_API" data-name="Toon® API" class="cls-1" d="M35.929,74.641V18.673h22.56V7.729H0.6V18.673h22.56V74.641H35.929Zm49.1-40.128a6.179,6.179,0,0,1,3.456,2.3,11.208,11.208,0,0,1,1.824,4.9,53.783,53.783,0,0,1,.528,8.448,52.2,52.2,0,0,1-.528,8.256,11.593,11.593,0,0,1-1.824,4.944,6.323,6.323,0,0,1-3.456,2.4,19.431,19.431,0,0,1-5.328.624,18.383,18.383,0,0,1-5.232-.624,6.322,6.322,0,0,1-3.36-2.4,11.573,11.573,0,0,1-1.824-4.944,52.023,52.023,0,0,1-.528-8.256,53.6,53.6,0,0,1,.528-8.448,11.19,11.19,0,0,1,1.824-4.9,6.164,6.164,0,0,1,3.36-2.3,19.872,19.872,0,0,1,5.232-.576A21.01,21.01,0,0,1,85.032,34.513Zm4.944,40.224a16.29,16.29,0,0,0,7.344-4.224,18.384,18.384,0,0,0,4.368-8.016,46.337,46.337,0,0,0,1.44-12.528,45.268,45.268,0,0,0-1.44-12.432,18.02,18.02,0,0,0-4.368-7.872,16.167,16.167,0,0,0-7.344-4.128,39.4,39.4,0,0,0-10.272-1.2,38.417,38.417,0,0,0-10.128,1.2,16.15,16.15,0,0,0-7.3,4.128,18.005,18.005,0,0,0-4.368,7.872,45.268,45.268,0,0,0-1.44,12.432A46.337,46.337,0,0,0,57.912,62.5a18.658,18.658,0,0,0,4.32,8.016,15.946,15.946,0,0,0,7.248,4.224A37.436,37.436,0,0,0,79.7,75.985,37.98,37.98,0,0,0,89.976,74.737Zm51.5-40.224a6.179,6.179,0,0,1,3.456,2.3,11.215,11.215,0,0,1,1.824,4.9,53.783,53.783,0,0,1,.528,8.448,52.2,52.2,0,0,1-.528,8.256,11.6,11.6,0,0,1-1.824,4.944,6.323,6.323,0,0,1-3.456,2.4,19.431,19.431,0,0,1-5.328.624,18.381,18.381,0,0,1-5.232-.624,6.322,6.322,0,0,1-3.36-2.4,11.573,11.573,0,0,1-1.824-4.944,51.963,51.963,0,0,1-.528-8.256,53.54,53.54,0,0,1,.528-8.448,11.19,11.19,0,0,1,1.824-4.9,6.164,6.164,0,0,1,3.36-2.3,19.87,19.87,0,0,1,5.232-.576A21.01,21.01,0,0,1,141.48,34.513Zm4.944,40.224a16.29,16.29,0,0,0,7.344-4.224,18.39,18.39,0,0,0,4.368-8.016,46.337,46.337,0,0,0,1.44-12.528,45.268,45.268,0,0,0-1.44-12.432,18.025,18.025,0,0,0-4.368-7.872,16.167,16.167,0,0,0-7.344-4.128,39.4,39.4,0,0,0-10.272-1.2,38.414,38.414,0,0,0-10.128,1.2,16.148,16.148,0,0,0-7.3,4.128,18.005,18.005,0,0,0-4.368,7.872,45.268,45.268,0,0,0-1.44,12.432A46.337,46.337,0,0,0,114.36,62.5a18.658,18.658,0,0,0,4.32,8.016,15.946,15.946,0,0,0,7.248,4.224,37.431,37.431,0,0,0,10.224,1.248A37.983,37.983,0,0,0,146.424,74.737ZM183,36.241a33.761,33.761,0,0,1,8.736-1.152,19.322,19.322,0,0,1,5.184.576,6.083,6.083,0,0,1,3.216,2.112,9.091,9.091,0,0,1,1.632,4.176,42.528,42.528,0,0,1,.432,6.672V74.641h11.9V47.377a44.591,44.591,0,0,0-1.152-11.04,16.19,16.19,0,0,0-3.6-7.056,13.788,13.788,0,0,0-6.192-3.792,30.551,30.551,0,0,0-8.928-1.152,57.556,57.556,0,0,0-6.048.336q-3.168.338-6.192,0.912t-5.856,1.344a49.468,49.468,0,0,0-5.04,1.632v46.08H183v-38.4Zm61.729-14.808a6.365,6.365,0,0,1-1.483,2.966,5.47,5.47,0,0,1-2.715,1.511,17.372,17.372,0,0,1-4.141.42,16.733,16.733,0,0,1-4.058-.42,5.455,5.455,0,0,1-2.686-1.511,6.346,6.346,0,0,1-1.483-2.966,21.359,21.359,0,0,1-.448-4.841,23.1,23.1,0,0,1,.448-5.065,6.009,6.009,0,0,1,1.483-2.966,5.142,5.142,0,0,1,2.686-1.371,20.759,20.759,0,0,1,4.058-.336,21.557,21.557,0,0,1,4.141.336,5.165,5.165,0,0,1,2.715,1.371,6.025,6.025,0,0,1,1.483,2.966,23.219,23.219,0,0,1,.448,5.065A21.475,21.475,0,0,1,244.729,21.433Zm4.226-11.585a9.536,9.536,0,0,0-2.463-4.226,9.265,9.265,0,0,0-4.17-2.211,24.184,24.184,0,0,0-5.932-.644,23.92,23.92,0,0,0-5.877.644,9.256,9.256,0,0,0-4.169,2.211,9.508,9.508,0,0,0-2.463,4.226,23.537,23.537,0,0,0-.812,6.744,23.292,23.292,0,0,0,.812,6.688,10.069,10.069,0,0,0,2.435,4.282,8.988,8.988,0,0,0,4.141,2.295,26.534,26.534,0,0,0,11.865,0,9.192,9.192,0,0,0,4.17-2.295,9.953,9.953,0,0,0,2.463-4.282,23.331,23.331,0,0,0,.811-6.688A23.576,23.576,0,0,0,248.955,9.847Zm-10.3,5.625a0.965,0.965,0,0,1-.924.448h-3.022V12.674h3.022a0.967,0.967,0,0,1,.924.448,2.27,2.27,0,0,1,.251,1.119A2.533,2.533,0,0,1,238.657,15.472Zm3.861-4.925a3.334,3.334,0,0,0-3.05-1.455h-9.123V23.979h4.366V19.726h1.063a1.008,1.008,0,0,1,.7.392,6.441,6.441,0,0,1,.727.98,7.213,7.213,0,0,1,.644,1.371,13.794,13.794,0,0,1,.448,1.511h4.757a10.333,10.333,0,0,0-1.539-3.834,5.371,5.371,0,0,0-1.875-1.651,3.909,3.909,0,0,0,2.8-.951q1.008-.951,1.008-3.526A6.338,6.338,0,0,0,242.518,10.547Zm61.19,26.006Q304.5,39.649,305.8,44t2.808,9.108H296.58q1.439-4.823,2.844-9.18t2.484-7.38h1.8Zm-10.584-12.1q-2.018,4.968-4.464,11.556t-4.9,13.536q-2.45,6.949-4.608,13.536t-3.528,11.556h14.9q0.5-1.871,1.152-4.32t1.44-5.328h19.44q1.007,2.881,1.908,5.364t1.692,4.284h15.192q-1.944-4.823-4.248-11.124t-4.644-13.068q-2.341-6.767-4.536-13.5t-3.852-12.492H293.124Zm54.144,50.184V59.881H363.4a12.4,12.4,0,0,0,5.94-1.368,12.252,12.252,0,0,0,4.248-3.744,17.383,17.383,0,0,0,2.556-5.508A25.224,25.224,0,0,0,377,42.529a35.083,35.083,0,0,0-.72-7.416,16.06,16.06,0,0,0-2.34-5.688,10.928,10.928,0,0,0-4.212-3.672,14.066,14.066,0,0,0-6.336-1.3h-29.88V74.641h13.752Zm0-25.92V36.193H358.14a3.325,3.325,0,0,1,2.808,1.332q1.007,1.333,1.008,5T360.8,47.461a3.589,3.589,0,0,1-2.736,1.26h-10.8Zm36.36-24.264V74.641H397.38V24.457H383.628Z" transform="translate(-0.594 -2.781)"/>
</svg>
